<svg width="20" height="20" viewBox="0 0 20 20" fill="none" xmlns="http://www.w3.org/2000/svg">
<circle cx="10" cy="10" r="10" fill="#E10E0E"/>
<g clip-path="url(#clip0_752_4118)">
<path d="M9.9999 4.3374C6.86865 4.3374 4.3374 6.86865 4.3374 9.9999C4.3374 13.1312 6.86865 15.6812 9.9999 15.6812C13.1312 15.6812 15.6812 13.1312 15.6812 9.9999C15.6812 6.86865 13.1312 4.3374 9.9999 4.3374ZM9.9999 14.8374C7.3374 14.8374 5.18115 12.6624 5.18115 9.9999C5.18115 7.3374 7.3374 5.18115 9.9999 5.18115C12.6624 5.18115 14.8374 7.35615 14.8374 10.0187C14.8374 12.6624 12.6624 14.8374 9.9999 14.8374Z" fill="white"/>
<path d="M11.725 8.2562C11.5562 8.08745 11.2937 8.08745 11.125 8.2562L9.99995 9.39995L8.8562 8.2562C8.68745 8.08745 8.42495 8.08745 8.2562 8.2562C8.08745 8.42495 8.08745 8.68745 8.2562 8.8562L9.39995 9.99995L8.2562 11.1437C8.08745 11.3125 8.08745 11.575 8.2562 11.7437C8.3312 11.8187 8.4437 11.875 8.5562 11.875C8.6687 11.875 8.7812 11.8375 8.8562 11.7437L9.99995 10.6L11.1437 11.7437C11.2187 11.8187 11.3312 11.875 11.4437 11.875C11.5562 11.875 11.6687 11.8375 11.7437 11.7437C11.9125 11.575 11.9125 11.3125 11.7437 11.1437L10.6 9.99995L11.7437 8.8562C11.8937 8.68745 11.8937 8.42495 11.725 8.2562Z" fill="white"/>
</g>
<defs>
<clipPath id="clip0_752_4118">
<rect width="12" height="12" fill="white" transform="translate(4 4)"/>
</clipPath>
</defs>
</svg>
