<svg width="20" height="20" viewBox="0 0 20 20" fill="none" xmlns="http://www.w3.org/2000/svg">
<circle cx="10" cy="10" r="10" fill="#22AD5C"/>
<g clip-path="url(#clip0_752_4106)">
<path d="M9.9999 4.3374C6.86865 4.3374 4.3374 6.86865 4.3374 9.9999C4.3374 13.1312 6.86865 15.6812 9.9999 15.6812C13.1312 15.6812 15.6812 13.1312 15.6812 9.9999C15.6812 6.86865 13.1312 4.3374 9.9999 4.3374ZM9.9999 14.8374C7.3374 14.8374 5.18115 12.6624 5.18115 9.9999C5.18115 7.3374 7.3374 5.18115 9.9999 5.18115C12.6624 5.18115 14.8374 7.35615 14.8374 10.0187C14.8374 12.6624 12.6624 14.8374 9.9999 14.8374Z" fill="white"/>
<path d="M11.6123 8.25626L9.38106 10.4313L8.36856 9.43751C8.19981 9.26876 7.93731 9.28751 7.76856 9.43751C7.59981 9.60626 7.61856 9.86876 7.76856 10.0375L8.96856 11.2C9.08106 11.3125 9.23106 11.3688 9.38106 11.3688C9.53106 11.3688 9.68106 11.3125 9.79356 11.2L12.2123 8.87501C12.3811 8.70626 12.3811 8.44376 12.2123 8.27501C12.0436 8.10626 11.7811 8.10626 11.6123 8.25626Z" fill="white"/>
</g>
<defs>
<clipPath id="clip0_752_4106">
<rect width="12" height="12" fill="white" transform="translate(4 4)"/>
</clipPath>
</defs>
</svg>
