<svg width="32" height="32" viewBox="0 0 32 32" fill="none" xmlns="http://www.w3.org/2000/svg">
<path d="M17.25 5.99963C17.2498 5.91093 17.1966 5.69824 17.0205 5.35608C16.8566 5.03783 16.6295 4.68934 16.3906 4.35706C16.2574 4.17182 16.1235 3.99634 16 3.83948C15.8764 3.99634 15.7426 4.17182 15.6093 4.35706C15.3704 4.68934 15.1433 5.03783 14.9795 5.35608C14.8033 5.69824 14.7501 5.91093 14.75 5.99963C14.75 6.68998 15.3096 7.24963 16 7.24963C16.6903 7.24963 17.25 6.68998 17.25 5.99963ZM18.75 5.99963C18.75 7.51843 17.5187 8.74963 16 8.74963C14.4812 8.74963 13.25 7.51843 13.25 5.99963C13.2501 5.53596 13.4468 5.05544 13.6455 4.66956C13.8566 4.25946 14.1297 3.84386 14.3906 3.48108C14.6535 3.11548 14.9156 2.78829 15.1103 2.55334C15.2079 2.43559 15.2898 2.33973 15.3476 2.27307C15.3762 2.24005 15.399 2.21405 15.415 2.19592C15.423 2.18682 15.4301 2.17945 15.4345 2.17444C15.4367 2.17205 15.4382 2.16998 15.4394 2.16858L15.498 2.10999C15.6351 1.98636 15.8135 1.91663 16 1.91663C16.213 1.91663 16.4163 2.00712 16.5586 2.16565L16.5605 2.16858C16.5618 2.16998 16.5633 2.17205 16.5654 2.17444C16.5698 2.17945 16.5769 2.18682 16.5849 2.19592C16.6009 2.21405 16.6237 2.24005 16.6523 2.27307C16.7101 2.33973 16.792 2.43559 16.8896 2.55334C17.0844 2.78829 17.3464 3.11548 17.6093 3.48108C17.8702 3.84386 18.1433 4.25946 18.3545 4.66956C18.5531 5.05544 18.7499 5.53596 18.75 5.99963Z" fill="#777777"/>
<path d="M15.25 12V7.99996C15.25 7.58575 15.5857 7.24963 16 7.24963C16.4142 7.24963 16.75 7.58575 16.75 7.99996V12C16.75 12.4142 16.4142 12.75 16 12.75C15.5857 12.75 15.25 12.4142 15.25 12Z" fill="#777777"/>
<path d="M19.778 15.25C20.1273 15.2501 20.4301 15.4916 20.5084 15.832C20.7649 16.9459 22.0036 17.9168 23.5553 17.917C25.3184 17.917 26.5836 16.6742 26.5836 15.333C26.5834 13.9918 25.3183 12.75 23.5553 12.75H8.44397C6.68118 12.7502 5.41683 13.9919 5.41663 15.333C5.41663 16.6741 6.68104 17.9167 8.44397 17.917C9.99576 17.917 11.2344 16.9459 11.4908 15.832L11.5309 15.7089C11.6462 15.4347 11.9166 15.25 12.2223 15.25C12.5717 15.25 12.8744 15.4915 12.9528 15.832C13.2091 16.9458 14.448 17.9168 15.9996 17.917C17.5514 17.917 18.7901 16.9459 19.0465 15.832L19.0865 15.7089C19.2019 15.4347 19.4723 15.25 19.778 15.25ZM28.0836 15.333C28.0836 17.6736 25.965 19.417 23.5553 19.417C22.0586 19.4169 20.6343 18.7482 19.777 17.6679C18.9196 18.7479 17.4959 19.417 15.9996 19.417C14.5031 19.4169 13.0786 18.7482 12.2213 17.6679C11.3639 18.7478 9.94029 19.417 8.44397 19.417C6.0345 19.4167 3.91663 17.6734 3.91663 15.333C3.91682 12.9927 6.03461 11.2502 8.44397 11.25H23.5553C25.9648 11.25 28.0834 12.9925 28.0836 15.333Z" fill="#777777"/>
<path d="M24.5983 18.5182C24.6803 18.1122 25.076 17.8493 25.4821 17.9313C25.8879 18.0134 26.15 18.4091 26.068 18.8151L25.3737 22.2545C25.0276 23.9684 24.757 25.3174 24.4176 26.361C24.0729 27.4208 23.6314 28.253 22.8932 28.8864C22.1506 29.5233 21.2786 29.8121 20.2135 29.9498C19.1719 30.0845 17.8633 30.0836 16.2145 30.0836H15.7858C14.137 30.0836 12.8283 30.0845 11.7867 29.9498C10.7214 29.812 9.84879 29.5235 9.10608 28.8864C8.36792 28.253 7.92733 27.4207 7.58264 26.361C7.24321 25.3173 6.9717 23.9685 6.62561 22.2545L5.93127 18.8151C5.84932 18.4091 6.11219 18.0133 6.51819 17.9313C6.92419 17.8493 7.31999 18.1122 7.40198 18.5182L8.09631 21.9576C8.44947 23.7066 8.70303 24.9551 9.0094 25.8971C9.31043 26.8226 9.63629 27.3646 10.0826 27.7477C10.5246 28.1269 11.0797 28.3462 11.9791 28.4625C12.9023 28.5819 14.0974 28.5836 15.7858 28.5836H16.2145C17.9029 28.5836 19.0979 28.5819 20.0211 28.4625C20.9204 28.3462 21.4747 28.1268 21.9166 27.7477C22.3632 27.3646 22.6898 26.8228 22.9908 25.8971C23.2972 24.9552 23.5508 23.7066 23.9039 21.9576L24.5983 18.5182Z" fill="#777777"/>
</svg>
