<svg width="32" height="32" viewBox="0 0 32 32" fill="none" xmlns="http://www.w3.org/2000/svg">
<path d="M21.9164 14.6666C21.9164 13.8555 21.8737 13.2563 21.7748 12.8063C21.6778 12.3649 21.5376 12.1159 21.3774 11.9557C21.2171 11.7955 20.9681 11.6562 20.5268 11.5592C20.0768 11.4604 19.4775 11.4166 18.6664 11.4166H13.3334C12.5223 11.4166 11.923 11.4604 11.4731 11.5592C11.0317 11.6562 10.7827 11.7955 10.6225 11.9557C10.4623 12.1159 10.323 12.365 10.226 12.8063C10.1271 13.2563 10.0834 13.8555 10.0834 14.6666V28.5836H21.9164V14.6666ZM23.4164 29.3336C23.4162 29.7477 23.0805 30.0836 22.6664 30.0836H9.33341C8.91931 30.0836 8.58359 29.7477 8.58341 29.3336V14.6666C8.58341 13.8233 8.62618 13.0952 8.76017 12.485C8.89611 11.8662 9.13583 11.3213 9.56193 10.8952C9.98802 10.4691 10.533 10.2293 11.1518 10.0934C11.762 9.95941 12.4901 9.91664 13.3334 9.91664H18.6664C19.51 9.91664 20.2388 9.95933 20.849 10.0934C21.4677 10.2293 22.0119 10.4692 22.4379 10.8952C22.864 11.3213 23.1037 11.8662 23.2397 12.485C23.3737 13.0952 23.4164 13.8233 23.4164 14.6666V29.3336Z" fill="#777777"/>
<path d="M17.3337 23.25C17.7478 23.2502 18.0837 23.5859 18.0837 24C18.0837 24.4141 17.7478 24.7498 17.3337 24.75H14.6667C14.2525 24.75 13.9167 24.4142 13.9167 24C13.9167 23.5858 14.2525 23.25 14.6667 23.25H17.3337ZM17.3337 19.25C17.7478 19.2502 18.0837 19.5859 18.0837 20C18.0837 20.4141 17.7478 20.7498 17.3337 20.75H14.6667C14.2525 20.75 13.9167 20.4142 13.9167 20C13.9167 19.5858 14.2525 19.25 14.6667 19.25H17.3337ZM17.3337 15.25L17.4099 15.2539C17.7882 15.2922 18.0837 15.6116 18.0837 16C18.0837 16.3884 17.7882 16.7077 17.4099 16.7461L17.3337 16.75H14.6667C14.2525 16.75 13.9167 16.4142 13.9167 16C13.9167 15.5858 14.2525 15.25 14.6667 15.25H17.3337Z" fill="#777777"/>
<path d="M16.5834 10.2711V4.30531C16.5834 3.85787 16.6068 3.44605 16.6869 3.10316C16.7654 2.76743 16.9284 2.36929 17.311 2.12172C17.6999 1.87016 18.1329 1.8909 18.476 1.96937C18.8217 2.04846 19.202 2.21432 19.6039 2.41957L25.393 5.37465C26.0964 5.7338 26.6757 6.02836 27.1244 6.31996C27.5882 6.62132 27.9658 6.95185 28.2436 7.41078C28.5208 7.86889 28.6405 8.35909 28.6967 8.91371C28.7512 9.45174 28.7504 10.1101 28.7504 10.9137V29.3336C28.7502 29.7476 28.4144 30.0835 28.0004 30.0836C27.5863 30.0836 27.2506 29.7477 27.2504 29.3336V10.9137C27.2504 10.0801 27.2496 9.51023 27.2045 9.06507C27.1611 8.63659 27.0812 8.38796 26.9604 8.18812C26.84 7.98919 26.6598 7.80701 26.307 7.57777C25.9391 7.33868 25.4422 7.08377 24.7113 6.71058L18.9223 3.7555C18.5577 3.56934 18.3121 3.4726 18.1508 3.43422C18.15 3.43762 18.1487 3.44136 18.1479 3.44496C18.108 3.616 18.0834 3.8883 18.0834 4.30531V10.2711C18.0834 10.6853 17.7476 11.0211 17.3334 11.0211C16.9192 11.0211 16.5834 10.6853 16.5834 10.2711Z" fill="#777777"/>
<path d="M3.25008 29.333V17.333C3.25009 17.0412 3.26405 16.7557 3.32039 16.499C3.37869 16.2336 3.49209 15.9533 3.72274 15.7226C3.95338 15.492 4.23375 15.3786 4.4991 15.3203C4.75578 15.2639 5.04134 15.25 5.33309 15.25H9.33309C9.7473 15.25 10.0831 15.5858 10.0831 16C10.0831 16.4142 9.7473 16.75 9.33309 16.75H5.33309C5.07374 16.75 4.9169 16.7649 4.82039 16.7861C4.8098 16.7884 4.80078 16.7909 4.79305 16.7929C4.79097 16.8007 4.78855 16.8097 4.78621 16.8203C4.76501 16.9168 4.75009 17.0736 4.75008 17.333V29.333C4.75008 29.7472 4.41429 30.083 4.00008 30.083C3.58587 30.083 3.25008 29.7472 3.25008 29.333Z" fill="#777777"/>
<path d="M29.3337 28.5833C29.7478 28.5835 30.0837 28.9192 30.0837 29.3333C30.0837 29.7474 29.7478 30.0831 29.3337 30.0833H2.66675C2.25253 30.0833 1.91675 29.7475 1.91675 29.3333C1.91675 28.9191 2.25253 28.5833 2.66675 28.5833H29.3337Z" fill="#777777"/>
</svg>
