<svg width="32" height="32" viewBox="0 0 32 32" fill="none" xmlns="http://www.w3.org/2000/svg">
<path d="M27.9163 16.0004C27.9163 12.9937 27.9152 10.8138 27.6917 9.15076C27.471 7.50948 27.0462 6.48401 26.2815 5.71912C25.5165 4.95419 24.4904 4.52965 22.8489 4.30896C21.1859 4.08543 19.0066 4.08337 16.0002 4.08337C12.9935 4.08337 10.8137 4.08538 9.15064 4.30896C7.50915 4.52965 6.48392 4.9542 5.71899 5.71912C4.95408 6.48404 4.52953 7.50927 4.30884 9.15076C4.08526 10.8138 4.08325 12.9937 4.08325 16.0004C4.08325 19.0067 4.08531 21.186 4.30884 22.849C4.52953 24.4905 4.95407 25.5167 5.71899 26.2816C6.48388 27.0463 7.50936 27.4711 9.15064 27.6918C10.8137 27.9153 12.9936 27.9164 16.0002 27.9164C19.0065 27.9164 21.1859 27.9153 22.8489 27.6918C24.4904 27.4711 25.5165 27.0465 26.2815 26.2816C27.0464 25.5167 27.471 24.4905 27.6917 22.849C27.9152 21.186 27.9163 19.0066 27.9163 16.0004ZM29.4163 16.0004C29.4163 18.9645 29.4181 21.263 29.178 23.0492C28.9349 24.857 28.4321 26.2521 27.342 27.3422C26.2519 28.4322 24.8569 28.9351 23.0491 29.1781C21.2629 29.4182 18.9643 29.4164 16.0002 29.4164C13.0359 29.4164 10.7367 29.4182 8.95044 29.1781C7.1427 28.935 5.74752 28.4322 4.65747 27.3422C3.56753 26.2521 3.06457 24.8569 2.82153 23.0492C2.58141 21.263 2.58325 18.9644 2.58325 16.0004C2.58325 13.036 2.58138 10.7368 2.82153 8.95056C3.06459 7.1428 3.56743 5.74765 4.65747 4.65759C5.74752 3.56755 7.14268 3.06472 8.95044 2.82166C10.7367 2.5815 13.0359 2.58337 16.0002 2.58337C18.9643 2.58337 21.2629 2.58154 23.0491 2.82166C24.8568 3.0647 26.252 3.56766 27.342 4.65759C28.432 5.74764 28.9349 7.14283 29.178 8.95056C29.4181 10.7368 29.4163 13.036 29.4163 16.0004Z" fill="#777777"/>
<path d="M22.5686 9.95187C22.9828 9.95187 23.3186 10.2877 23.3186 10.7019C23.3186 11.1161 22.9828 11.4519 22.5686 11.4519H18.6418C17.6622 11.452 16.8658 12.2428 16.8586 13.2224L16.8244 17.9187H19.8459C20.26 17.9187 20.5957 18.2546 20.5959 18.6687C20.5959 19.0829 20.2601 19.4187 19.8459 19.4187H16.8127L16.7453 28.5749C16.7421 28.989 16.4036 29.3221 15.9895 29.3191C15.5753 29.3159 15.2423 28.9774 15.2453 28.5632L15.3127 19.4187H13.4426C13.0284 19.4187 12.6926 19.0829 12.6926 18.6687C12.6928 18.2546 13.0285 17.9187 13.4426 17.9187H15.3234L15.3586 13.2107C15.372 11.407 16.8382 9.952 18.6418 9.95187H22.5686Z" fill="#777777"/>
</svg>
