<svg width="32" height="32" viewBox="0 0 32 32" fill="none" xmlns="http://www.w3.org/2000/svg">
<path d="M21.9164 11.3336C21.9164 8.06605 19.2679 5.4168 16.0004 5.41663C12.7327 5.41663 10.0834 8.06594 10.0834 11.3336C10.0836 14.6011 12.7328 17.2496 16.0004 17.2496C19.2678 17.2495 21.9162 14.601 21.9164 11.3336ZM23.4164 11.3336C23.4162 15.4294 20.0962 18.7495 16.0004 18.7496C11.9044 18.7496 8.58359 15.4295 8.58341 11.3336C8.58341 7.23751 11.9043 3.91663 16.0004 3.91663C20.0963 3.9168 23.4164 7.23762 23.4164 11.3336Z" fill="#777777"/>
<path d="M24.5837 27.333C24.5836 22.5927 20.7408 18.7496 16.0004 18.7496C11.2602 18.7498 7.41692 22.5928 7.41675 27.333C7.41675 27.7472 7.08096 28.083 6.66675 28.083C6.25253 28.083 5.91675 27.7472 5.91675 27.333C5.91692 21.7643 10.4318 17.2498 16.0004 17.2496C21.5692 17.2496 26.0836 21.7642 26.0837 27.333C26.0837 27.7471 25.7478 28.0828 25.3337 28.083C24.9195 28.083 24.5837 27.7472 24.5837 27.333Z" fill="#777777"/>
</svg>
