<svg width="32" height="32" viewBox="0 0 32 32" fill="none" xmlns="http://www.w3.org/2000/svg">
<path d="M10.7835 23.4896C13.4837 20.5806 18.4689 20.4239 21.2249 23.4994C21.5013 23.8079 21.4758 24.2825 21.1673 24.5589C20.8588 24.8353 20.3841 24.8088 20.1077 24.5003C17.9756 22.1212 14.0187 22.2095 11.8831 24.5101C11.6014 24.8135 11.1271 24.8315 10.8235 24.5501C10.5199 24.2683 10.5017 23.7932 10.7835 23.4896ZM17.8372 16.0003C17.8372 14.9228 16.9922 14.0835 15.9915 14.0833C14.9906 14.0833 14.1448 14.9227 14.1448 16.0003C14.145 17.0778 14.9907 17.9164 15.9915 17.9164C16.9921 17.9162 17.837 17.0777 17.8372 16.0003ZM19.3372 16.0003C19.337 17.8681 17.8581 19.4162 15.9915 19.4164C14.1247 19.4164 12.645 17.8682 12.6448 16.0003C12.6448 14.1324 14.1246 12.5833 15.9915 12.5833C17.8582 12.5835 19.3372 14.1325 19.3372 16.0003Z" fill="#777777"/>
<path d="M3.91663 20.4922V14.1768C3.91663 12.115 3.91527 10.4886 4.09534 9.21974C4.27908 7.9253 4.66453 6.89293 5.51721 6.08497C6.27345 5.36853 7.21067 5.00508 8.36292 4.81349C9.49665 4.62499 10.9089 4.59249 12.6637 4.58595C13.0779 4.5844 13.415 4.91887 13.4166 5.33302C13.4182 5.74718 13.0837 6.08433 12.6696 6.08595C10.8988 6.09255 9.60502 6.12835 8.60901 6.29395C7.63146 6.4565 7.01437 6.73339 6.54944 7.17384C6.03558 7.66065 5.73768 8.31761 5.57971 9.43067C5.41807 10.5697 5.41663 12.0703 5.41663 14.1768V20.4922C5.41663 22.5987 5.41807 24.0993 5.57971 25.2383C5.73768 26.3512 6.03559 27.0083 6.54944 27.4951C7.06901 27.9873 7.77959 28.2766 8.97424 28.4287C10.1865 28.5831 11.7799 28.584 13.9996 28.584H17.9996C20.2196 28.584 21.8136 28.5831 23.026 28.4287C24.2206 28.2765 24.9312 27.9874 25.4508 27.4951C25.9646 27.0083 26.2616 26.3511 26.4196 25.2383C26.5812 24.0993 26.5836 22.5987 26.5836 20.4922V14.1768C26.5836 12.0703 26.5812 10.5697 26.4196 9.43067C26.2616 8.31775 25.9646 7.66062 25.4508 7.17384C24.9859 6.73339 24.3687 6.45651 23.3912 6.29395C22.3952 6.12834 21.1015 6.09255 19.3307 6.08595C18.9165 6.0844 18.5821 5.74723 18.5836 5.33302C18.5852 4.91887 18.9224 4.5844 19.3365 4.58595C21.0913 4.59249 22.5036 4.62497 23.6373 4.81349C24.7895 5.00508 25.7258 5.36858 26.4821 6.08497C27.3349 6.89298 27.7212 7.92513 27.9049 9.21974C28.085 10.4886 28.0836 12.115 28.0836 14.1768V20.4922C28.0836 22.554 28.085 24.1804 27.9049 25.4492C27.7211 26.7437 27.3349 27.776 26.4821 28.584C25.6348 29.3865 24.5622 29.7455 23.2155 29.917C21.8862 30.0863 20.1794 30.084 17.9996 30.084H13.9996C11.8202 30.084 10.1139 30.0863 8.78479 29.917C7.43795 29.7454 6.36446 29.3867 5.51721 28.584C4.66451 27.776 4.2791 26.7436 4.09534 25.4492C3.91527 24.1804 3.91663 22.554 3.91663 20.4922Z" fill="#777777"/>
<path d="M15.9996 1.91668C16.5875 1.91668 17.0056 1.9117 17.3795 1.99773C18.2002 2.18663 18.9163 2.6974 19.3141 3.4284C19.4975 3.76577 19.5832 4.16499 19.7008 4.67352L19.8121 5.15301C19.9218 5.62704 20.0189 6.0417 20.0602 6.38348C20.1027 6.73541 20.1007 7.11207 19.9332 7.48113C19.7783 7.82255 19.5328 8.11111 19.2301 8.32586L19.0973 8.41277C18.7653 8.61442 18.398 8.68601 18.028 8.71844C17.6625 8.75046 17.2062 8.74969 16.6637 8.74969H15.3356C14.7933 8.74969 14.3376 8.75043 13.9723 8.71844C13.6023 8.68601 13.235 8.61442 12.903 8.41277C12.5392 8.19181 12.243 7.87123 12.066 7.48113C11.8986 7.11208 11.8976 6.73541 11.9401 6.38348C11.9814 6.04171 12.0785 5.62705 12.1881 5.15301L12.2985 4.67352C12.4161 4.16507 12.5017 3.7658 12.6852 3.4284L12.7633 3.29363C13.1728 2.63452 13.8513 2.17484 14.6207 1.99773C14.9945 1.91179 15.4121 1.91668 15.9996 1.91668ZM15.9996 3.41668C15.3334 3.41668 15.1237 3.4212 14.9567 3.45965C14.5174 3.56077 14.1774 3.82328 14.0026 4.14422C13.9404 4.25848 13.8986 4.41373 13.7604 5.01141L13.6491 5.4909C13.5318 5.99776 13.4587 6.32015 13.4293 6.56316C13.4014 6.79461 13.4284 6.85247 13.4323 6.86102C13.4769 6.95953 13.5591 7.05734 13.6813 7.13152C13.7245 7.15773 13.8235 7.19979 14.1032 7.2243C14.3877 7.24921 14.766 7.24969 15.3356 7.24969H16.6637C17.2336 7.24969 17.6125 7.24924 17.8971 7.2243C18.177 7.19976 18.2758 7.15772 18.319 7.13152C18.4411 7.05731 18.5234 6.95937 18.568 6.86102C18.572 6.85229 18.5988 6.79403 18.5709 6.56316C18.5416 6.32025 18.4684 5.99843 18.3512 5.49187L18.2399 5.01141C18.1018 4.41404 18.0588 4.25946 17.9967 4.1452C17.822 3.82411 17.483 3.56087 17.0436 3.45965C16.8765 3.4212 16.6661 3.41668 15.9996 3.41668Z" fill="#777777"/>
</svg>
