<svg width="32" height="32" viewBox="0 0 32 32" fill="none" xmlns="http://www.w3.org/2000/svg">
<path d="M24.7983 23.3759C25.1426 23.1463 25.6083 23.2388 25.8383 23.583C26.4497 24.4982 26.9283 25.2974 27.1889 26.0117C27.4402 26.7008 27.5151 27.3861 27.2524 28.0507L27.1947 28.1836C27.1598 28.2583 27.122 28.3316 27.0815 28.4033L26.9516 28.6142C26.38 29.4632 25.408 29.7857 24.2719 29.9345C23.1258 30.0847 21.5809 30.083 19.6234 30.083H12.3764C10.4191 30.083 8.87498 30.0846 7.72892 29.9345C6.59266 29.7857 5.62088 29.4632 5.04923 28.6142C4.95685 28.477 4.87486 28.3333 4.80509 28.1836C4.476 27.4776 4.54286 26.7467 4.81095 26.0117C5.07145 25.2974 5.55012 24.4982 6.16153 23.583C6.39164 23.2386 6.85814 23.1459 7.20255 23.3759C7.54694 23.606 7.63966 24.0725 7.40958 24.417C6.80263 25.3255 6.41371 25.9947 6.22013 26.5253C6.03415 27.0353 6.0604 27.3265 6.16446 27.5498C6.20089 27.6279 6.24432 27.7035 6.29337 27.7763C6.48776 28.065 6.88838 28.3116 7.92325 28.4472C8.94849 28.5815 10.3742 28.583 12.3764 28.583H19.6234C21.6255 28.583 23.0513 28.5815 24.0766 28.4472C25.1116 28.3116 25.5131 28.065 25.7074 27.7763C25.7564 27.7035 25.799 27.6277 25.8354 27.5498C25.9394 27.3265 25.9657 27.0353 25.7797 26.5253C25.5861 25.9948 25.198 25.3253 24.5912 24.417C24.3611 24.0725 24.4538 23.606 24.7983 23.3759Z" fill="#777777"/>
<path d="M19.2501 12.6666C19.2501 10.8717 17.7951 9.41663 16.0001 9.41663C14.2051 9.41663 12.7501 10.8717 12.7501 12.6666C12.7501 14.4616 14.2051 15.9166 16.0001 15.9166C17.7951 15.9166 19.2501 14.4616 19.2501 12.6666ZM20.7501 12.6666C20.7501 15.29 18.6235 17.4166 16.0001 17.4166C13.3767 17.4166 11.2501 15.29 11.2501 12.6666C11.2501 10.0433 13.3767 7.91663 16.0001 7.91663C18.6235 7.91663 20.7501 10.0433 20.7501 12.6666Z" fill="#777777"/>
<path d="M25.2501 12.7828C25.2501 7.64713 20.9929 3.41663 16.0001 3.41663C11.0073 3.41663 6.75007 7.64713 6.75007 12.7828C6.75026 17.9878 11.055 21.6953 15.3526 24.4117C15.551 24.5241 15.7738 24.5836 16.0001 24.5836C16.2261 24.5836 16.4483 24.5238 16.6466 24.4117C20.947 21.7253 25.2499 17.9712 25.2501 12.7828ZM26.7501 12.7828C26.7499 18.8554 21.7357 23.0046 17.4268 25.694L17.4161 25.7008L17.4044 25.7076C16.9771 25.9536 16.4931 26.0836 16.0001 26.0836C15.5071 26.0836 15.023 25.9536 14.5958 25.7076L14.5831 25.6998L14.5694 25.692C10.2752 22.9805 5.25026 18.8761 5.25007 12.7828C5.25007 6.82822 10.1694 1.91663 16.0001 1.91663C21.8308 1.91663 26.7501 6.82822 26.7501 12.7828Z" fill="#777777"/>
</svg>
