<svg width="32" height="32" viewBox="0 0 32 32" fill="none" xmlns="http://www.w3.org/2000/svg">
<path d="M29.3337 8L29.7028 8.65235L20.486 13.875C18.768 14.8484 17.4143 15.417 15.9997 15.417C14.5852 15.4169 13.2323 14.8484 11.5144 13.875L2.29658 8.65235L3.03681 7.34766L12.2536 12.5703C13.9335 13.5221 14.9975 13.9169 15.9997 13.917C17.002 13.917 18.0667 13.5222 19.7468 12.5703L28.9636 7.34766L29.3337 8Z" fill="#777777"/>
<path d="M12.113 3.9655C14.7128 3.90018 17.2875 3.90017 19.8874 3.9655C21.9637 4.01767 23.6027 4.05755 24.9079 4.28483C26.2469 4.51802 27.3094 4.95936 28.2048 5.85807C29.0972 6.75389 29.5359 7.80128 29.7644 9.11686C29.9866 10.3966 30.0192 11.9955 30.0622 14.0163C30.0906 15.3411 30.0906 16.6583 30.0622 17.9831C30.0192 20.0041 29.9866 21.6036 29.7644 22.8835C29.5359 24.199 29.0971 25.2464 28.2048 26.1423C27.3094 27.0409 26.2468 27.4823 24.9079 27.7155C23.6027 27.9427 21.9637 27.9817 19.8874 28.0339C17.2875 28.0992 14.7128 28.0992 12.113 28.0339C10.0364 27.9817 8.39679 27.9428 7.0915 27.7155C5.75284 27.4823 4.69083 27.0407 3.7956 26.1423C2.9032 25.2464 2.46352 24.199 2.23505 22.8835C2.0128 21.6036 1.98127 20.0041 1.93818 17.9831C1.90993 16.6583 1.90993 15.3411 1.93818 14.0163C1.98127 11.9956 2.01285 10.3966 2.23505 9.11686C2.46351 7.80128 2.90317 6.75389 3.7956 5.85807C4.69085 4.95952 5.7528 4.51802 7.0915 4.28483C8.3968 4.05751 10.0364 4.01767 12.113 3.9655ZM19.8493 5.4655C17.2747 5.4008 14.7256 5.40082 12.1511 5.4655C10.0297 5.51879 8.52004 5.55849 7.34931 5.76237C6.21238 5.96037 5.47086 6.30165 4.8581 6.91667C4.24235 7.53476 3.90573 8.26711 3.71357 9.3737C3.51525 10.516 3.48127 11.9823 3.4372 14.0485C3.4094 15.3521 3.4094 16.6482 3.4372 17.9518C3.48126 20.0181 3.51521 21.4844 3.71357 22.6266C3.90574 23.7332 4.24233 24.4655 4.8581 25.0837C5.47082 25.6986 6.21245 26.04 7.34931 26.238C8.52004 26.4418 10.0297 26.4815 12.1511 26.5348C14.7256 26.5996 17.2747 26.5996 19.8493 26.5348C21.9707 26.4815 23.4803 26.4418 24.6511 26.238C25.7879 26.04 26.5295 25.6986 27.1423 25.0837C27.758 24.4655 28.0947 23.7332 28.2868 22.6266C28.4851 21.4844 28.5182 20.0181 28.5622 17.9518C28.5901 16.6483 28.5901 15.3521 28.5622 14.0485C28.5182 11.9823 28.4851 10.516 28.2868 9.3737C28.0947 8.26711 27.758 7.53476 27.1423 6.91667C26.5295 6.30161 25.7879 5.96039 24.6511 5.76237C23.4803 5.55848 21.9707 5.5188 19.8493 5.4655Z" fill="#777777"/>
</svg>
