<svg width="32" height="32" viewBox="0 0 32 32" fill="none" xmlns="http://www.w3.org/2000/svg">
<path d="M10 4.25L10.125 4.26074C10.4093 4.30869 10.6458 4.51739 10.7236 4.80273L12.2236 10.3027C12.2944 10.5624 12.2206 10.84 12.0303 11.0303L8.33301 14.7266C10.3647 18.5447 13.5574 22.0045 17.7764 24.1152L20.9355 20.5059C21.1092 20.3075 21.3744 20.2147 21.6338 20.2617L27.1338 21.2617C27.4904 21.3266 27.75 21.6375 27.75 22V27C27.75 27.4142 27.4142 27.75 27 27.75C12.4908 27.75 4.25 14.8124 4.25 5C4.25 4.58579 4.58579 4.25 5 4.25H10ZM19.2051 24.7607C21.3277 25.6215 23.6804 26.1491 26.25 26.2354V22.626L21.7842 21.8135L19.2051 24.7607ZM5.76758 5.75C5.87662 8.18776 6.51134 10.7939 7.63574 13.3027L10.6611 10.2773L9.42676 5.75H5.76758Z" fill="#777777"/>
</svg>
