<svg width="32" height="32" viewBox="0 0 32 32" fill="none" xmlns="http://www.w3.org/2000/svg">
<path d="M28.5836 15.9996C28.5834 9.0502 22.949 3.41663 15.9996 3.41663C9.05027 3.4168 3.41677 9.05031 3.41659 15.9996C3.41659 17.736 3.76831 19.3885 4.40292 20.8912L4.64999 21.4811C4.7228 21.658 4.78569 21.8162 4.83749 21.9576C4.93983 22.2371 5.02162 22.5112 5.04062 22.7858C5.07435 23.2742 4.9273 23.7874 4.74667 24.4625L3.72616 28.2731L7.53769 27.2535C8.21276 27.0729 8.72596 26.9248 9.21444 26.9586L9.4205 26.984C9.62624 27.0199 9.83221 27.086 10.0416 27.1627C10.3245 27.2663 10.6748 27.4143 11.108 27.5973C12.6107 28.2319 14.2632 28.5836 15.9996 28.5836C22.9491 28.5836 28.5836 22.9492 28.5836 15.9996ZM30.0836 15.9996C30.0836 23.7776 23.7775 30.0836 15.9996 30.0836C14.1805 30.0836 12.4403 29.7381 10.8424 29.109L10.525 28.9791C10.0776 28.7901 9.76654 28.659 9.52597 28.5709C9.40386 28.5262 9.31461 28.4983 9.24862 28.4811L9.11093 28.4557C8.93389 28.4434 8.71457 28.4916 7.92538 28.7028L2.86093 30.0582C2.60225 30.1274 2.32571 30.0532 2.13632 29.8639C1.94692 29.6745 1.87275 29.398 1.94198 29.1393L3.29745 24.0748C3.50849 23.2861 3.55672 23.0664 3.54452 22.8893C3.54049 22.831 3.5177 22.7173 3.42831 22.4733C3.34021 22.2328 3.20988 21.9222 3.02108 21.4752C2.30979 19.7911 1.91659 17.9402 1.91659 15.9996C1.91677 8.22188 8.22184 1.9168 15.9996 1.91663C23.7774 1.91663 30.0834 8.22177 30.0836 15.9996Z" fill="#777777"/>
<path d="M21.9163 20.0354C21.9163 19.9008 21.9129 19.7829 21.9006 19.679C21.8882 19.5742 21.8696 19.5049 21.8518 19.4622C21.8359 19.424 21.8263 19.4202 21.8323 19.4251C21.8362 19.4283 21.8352 19.4264 21.8254 19.4222L21.7639 19.4065C20.8443 19.2624 20.1612 19.1549 19.6819 19.0852C19.4421 19.0504 19.2598 19.026 19.1282 19.011L18.9661 18.9944C18.7475 19.0072 18.5354 19.0945 18.2795 19.2698C17.9893 19.4687 17.7747 19.6778 17.4094 19.972L16.7424 20.5081C17.8177 21.1082 18.9418 21.5367 20.0696 21.7913C20.6493 21.9222 20.7733 21.9405 20.9963 21.8938C21.1053 21.871 21.2821 21.7891 21.4651 21.6429C21.6478 21.4967 21.7655 21.3428 21.8118 21.2415C21.902 21.044 21.9163 20.8501 21.9163 20.0354ZM11.9641 10.0833C11.1495 10.0833 10.9556 10.0976 10.7581 10.1878C10.6568 10.2341 10.503 10.3525 10.3567 10.5354C10.2106 10.7182 10.1296 10.8942 10.1067 11.0032C10.06 11.2262 10.0774 11.3504 10.2083 11.93C10.4628 13.0572 10.8909 14.1813 11.4905 15.2561L12.0276 14.5901C12.3217 14.2249 12.5309 14.0111 12.7297 13.721C12.9052 13.465 12.9923 13.2522 13.0051 13.0335C13.0038 13.0568 13.0059 13.025 12.9885 12.8724C12.9736 12.7407 12.9492 12.5585 12.9143 12.3186C12.8446 11.8394 12.7372 11.1554 12.593 10.2356C12.5865 10.194 12.578 10.1746 12.5745 10.1683C12.5707 10.1652 12.5601 10.1582 12.5374 10.1487C12.4946 10.1309 12.4255 10.1123 12.3206 10.0999C12.2166 10.0876 12.0988 10.0833 11.9641 10.0833ZM23.4163 20.0354C23.4163 20.7411 23.4305 21.3072 23.176 21.8645C23.0044 22.2402 22.7077 22.57 22.4016 22.8147C22.0954 23.0595 21.7083 23.2769 21.304 23.3616C20.7147 23.485 20.2789 23.377 19.7395 23.2552C17.3782 22.722 15.0563 21.5183 13.0852 19.68L12.6956 19.304C10.6447 17.253 9.31412 14.7795 8.74537 12.261C8.62351 11.7214 8.51456 11.2849 8.63795 10.6956C8.72265 10.2915 8.9402 9.90499 9.18482 9.59892C9.42959 9.29272 9.75922 8.99518 10.135 8.82353C10.6923 8.56898 11.2586 8.58329 11.9641 8.58329C12.2574 8.58329 12.7076 8.59441 13.1145 8.76396C13.5879 8.96133 13.9748 9.36199 14.0754 10.0032C14.219 10.9191 14.3275 11.6132 14.3987 12.1028C14.4342 12.347 14.4611 12.5473 14.4788 12.7024C14.4864 12.7695 14.4944 12.8431 14.4993 12.9153L14.5022 13.1214C14.4676 13.7121 14.2283 14.1874 13.967 14.5686C13.7293 14.9156 13.3918 15.289 13.1965 15.5315L12.344 16.5882C12.7616 17.1636 13.2315 17.7188 13.7561 18.2434C14.2806 18.7679 14.8361 19.2371 15.4114 19.6546L16.469 18.804C16.7115 18.6087 17.084 18.2703 17.4309 18.0325C17.8121 17.7713 18.2876 17.532 18.8782 17.4974C19.0037 17.4901 19.1632 17.5056 19.2971 17.5208C19.4524 17.5384 19.6533 17.5653 19.8977 17.6009C20.3873 17.672 21.0807 17.7816 21.9963 17.9251C22.6378 18.0257 23.0392 18.4124 23.2366 18.886C23.4059 19.2927 23.4163 19.7422 23.4163 20.0354Z" fill="#777777"/>
</svg>
