<svg width="48" height="48" viewBox="0 0 48 48" fill="none" xmlns="http://www.w3.org/2000/svg">
<path d="M0 0H48V48H0V0Z" fill="#D70127"/>
<path d="M14.144 15.6762L13.3986 14.9421C13.0598 15.1755 12.6871 15.3562 12.2805 15.4842C11.8739 15.6047 11.4522 15.6649 11.0155 15.6649C10.4734 15.6649 9.95388 15.5708 9.45694 15.3826C8.96753 15.1944 8.52706 14.9233 8.13553 14.5694C7.75153 14.2155 7.44659 13.7864 7.22071 13.2819C7.00235 12.7774 6.89318 12.2089 6.89318 11.5765C6.89318 10.944 7.00235 10.3755 7.22071 9.87106C7.44659 9.36659 7.75153 8.93741 8.13553 8.58353C8.52706 8.22965 8.96753 7.95859 9.45694 7.77035C9.95388 7.58212 10.4734 7.488 11.0155 7.488C11.5576 7.488 12.0772 7.58212 12.5741 7.77035C13.0711 7.95859 13.5115 8.22965 13.8955 8.58353C14.2871 8.93741 14.5958 9.36659 14.8216 9.87106C15.0475 10.3755 15.1605 10.944 15.1605 11.5765C15.1605 11.9981 15.104 12.3972 14.9911 12.7736C14.8781 13.1426 14.7238 13.4814 14.528 13.7901L15.2847 14.4904L14.144 15.6762ZM8.73412 11.5652C8.73412 12.1224 8.84706 12.5854 9.07294 12.9544C9.29882 13.3158 9.58494 13.5868 9.93129 13.7675C10.2852 13.9482 10.6466 14.0386 11.0155 14.0386C11.2188 14.0386 11.4184 14.016 11.6141 13.9708C11.8174 13.9256 12.0056 13.8541 12.1788 13.7562L10.9365 12.5704L12.0659 11.3845L13.184 12.5026C13.2292 12.3671 13.2631 12.2202 13.2856 12.0621C13.3082 11.904 13.3195 11.7384 13.3195 11.5652C13.3195 11.0005 13.2028 10.5374 12.9694 10.176C12.736 9.80706 12.4424 9.536 12.0885 9.36282C11.7346 9.18212 11.3769 9.09176 11.0155 9.09176C10.6541 9.09176 10.2965 9.18212 9.94259 9.36282C9.59624 9.536 9.30635 9.80706 9.07294 10.176C8.84706 10.5374 8.73412 11.0005 8.73412 11.5652Z" fill="white"/>
<path d="M16.4716 15.5294V7.62353H18.256V13.9821H21.4861V15.5294H16.4716Z" fill="white"/>
<path d="M22.8354 15.5294V7.62353H24.6198V15.5294H22.8354Z" fill="white"/>
<path d="M26.1435 15.5294V7.62353H27.9279L31.3049 12.6042V7.62353H33.0894V15.5294H31.3049L27.9279 10.5713V15.5294H26.1435Z" fill="white"/>
<path d="M41.0176 7.62353L38.2506 10.6278L41.3339 15.5294H39.2671L37.076 11.8814L36.3871 12.6381V15.5294H34.6026V7.62353H36.3871V10.3002L38.8266 7.62353H41.0176Z" fill="white"/>
<path d="M7.11906 27.7647V19.8588H10.1346C10.6767 19.8588 11.1548 19.9529 11.5689 20.1412C11.9831 20.3294 12.3068 20.6005 12.5402 20.9544C12.7736 21.3007 12.8904 21.7148 12.8904 22.1967C12.8904 22.7238 12.7473 23.1642 12.4612 23.5181C12.1751 23.872 11.7798 24.1242 11.2753 24.2748L13.4325 27.7647H11.3769L9.49082 24.5459H8.90353V27.7647H7.11906ZM8.90353 23.0325H10.1007C10.3793 23.0325 10.5864 22.9911 10.7219 22.9082C10.8649 22.8179 10.9628 22.7087 11.0155 22.5807C11.0682 22.4527 11.0946 22.3247 11.0946 22.1967C11.0946 22.0687 11.0682 21.9445 11.0155 21.824C10.9628 21.696 10.8649 21.5906 10.7219 21.5078C10.5864 21.4249 10.3793 21.3835 10.1007 21.3835H8.90353V23.0325Z" fill="white"/>
<path d="M14.4755 27.7647V19.8588H16.26V27.7647H14.4755Z" fill="white"/>
<path d="M17.7836 27.7647V19.8588H20.6636C21.6123 19.8588 22.3841 20.032 22.9789 20.3784C23.5813 20.7172 24.0217 21.184 24.3003 21.7788C24.5789 22.3661 24.7182 23.04 24.7182 23.8005C24.7182 24.6664 24.5526 25.3967 24.2213 25.9915C23.8975 26.5788 23.4307 27.0231 22.8208 27.3242C22.2184 27.6179 21.4994 27.7647 20.6636 27.7647H17.7836ZM19.5681 26.2174H20.5733C21.1907 26.2174 21.665 26.1158 21.9963 25.9125C22.3351 25.7092 22.5686 25.4268 22.6966 25.0654C22.8321 24.704 22.8999 24.2824 22.8999 23.8005C22.8999 22.9496 22.7041 22.336 22.3126 21.9595C21.9286 21.5755 21.3488 21.3835 20.5733 21.3835H19.5681V26.2174Z" fill="white"/>
<path d="M26.0111 27.7647V19.8588H31.2064V21.3948H27.7956V22.8292H30.6756V24.3652H27.7956V26.2287H31.2064V27.7647H26.0111Z" fill="white"/>
<path d="M32.5732 27.7647V19.8588H35.5887C36.1308 19.8588 36.6089 19.9529 37.0231 20.1412C37.4372 20.3294 37.7609 20.6005 37.9944 20.9544C38.2278 21.3007 38.3445 21.7148 38.3445 22.1967C38.3445 22.7238 38.2014 23.1642 37.9153 23.5181C37.6292 23.872 37.2339 24.1242 36.7294 24.2748L38.8866 27.7647H36.8311L34.9449 24.5459H34.3576V27.7647H32.5732ZM34.3576 23.0325H35.5548C35.8334 23.0325 36.0405 22.9911 36.176 22.9082C36.3191 22.8179 36.4169 22.7087 36.4696 22.5807C36.5224 22.4527 36.5487 22.3247 36.5487 22.1967C36.5487 22.0687 36.5224 21.9445 36.4696 21.824C36.4169 21.696 36.3191 21.5906 36.176 21.5078C36.0405 21.4249 35.8334 21.3835 35.5548 21.3835H34.3576V23.0325Z" fill="white"/>
<path d="M10.7784 40.1355C9.95765 40.1355 9.25741 39.9624 8.67765 39.616C8.09788 39.2621 7.65365 38.7802 7.34494 38.1704C7.04376 37.5605 6.89318 36.8602 6.89318 36.0696C6.89318 35.2791 7.04 34.5751 7.33365 33.9576C7.63482 33.3327 8.07529 32.8433 8.65506 32.4894C9.23482 32.1355 9.94259 31.9586 10.7784 31.9586C11.7572 31.9586 12.5628 32.2071 13.1953 32.704C13.8278 33.1934 14.2155 33.8899 14.3586 34.7934H12.4047C12.3294 34.4094 12.1449 34.112 11.8513 33.9012C11.5652 33.6904 11.1962 33.5849 10.7445 33.5849C10.3529 33.5849 10.0028 33.6791 9.69412 33.8673C9.38541 34.048 9.14447 34.3228 8.97129 34.6918C8.79812 35.0532 8.71153 35.5125 8.71153 36.0696C8.71153 36.6118 8.79435 37.0673 8.96 37.4362C9.13318 37.7976 9.37412 38.0725 9.68282 38.2607C9.99153 38.4414 10.3454 38.5318 10.7445 38.5318C11.1962 38.5318 11.5652 38.4376 11.8513 38.2494C12.1449 38.0536 12.3294 37.7788 12.4047 37.4249H14.3586C14.2155 38.2682 13.8278 38.9308 13.1953 39.4127C12.5628 39.8946 11.7572 40.1355 10.7784 40.1355Z" fill="white"/>
<path d="M15.6444 40V32.0941H17.4288V38.4527H20.6589V40H15.6444Z" fill="white"/>
<path d="M24.8399 40.1355C24.102 40.1355 23.4959 39.9887 23.0215 39.6951C22.5472 39.4014 22.1971 39.0099 21.9712 38.5205C21.7453 38.0311 21.6324 37.4889 21.6324 36.8941V32.0941H23.4055V36.9054C23.4055 37.4174 23.5298 37.8127 23.7782 38.0913C24.0267 38.3624 24.3919 38.4979 24.8738 38.4979C25.3481 38.4979 25.7133 38.3624 25.9693 38.0913C26.2328 37.8127 26.3646 37.4174 26.3646 36.9054V32.0941H28.1378V36.8941C28.1378 37.5115 28.0361 38.0273 27.8328 38.4414C27.6295 38.8555 27.3622 39.1868 27.0309 39.4353C26.7072 39.6838 26.3495 39.8645 25.958 39.9774C25.574 40.0828 25.2013 40.1355 24.8399 40.1355Z" fill="white"/>
<path d="M29.6067 40V32.0941H32.7804C33.6538 32.0941 34.3051 32.2824 34.7342 32.6588C35.1709 33.0278 35.3893 33.5134 35.3893 34.1158C35.3893 34.5525 35.2914 34.8988 35.0956 35.1548C34.9074 35.4108 34.6627 35.6179 34.3615 35.776C34.5724 35.8664 34.7832 36.0132 34.994 36.2165C35.2048 36.4122 35.3818 36.6456 35.5248 36.9167C35.6754 37.1878 35.7507 37.4776 35.7507 37.7864C35.7507 38.1929 35.6415 38.5656 35.4232 38.9045C35.2124 39.2358 34.9074 39.5031 34.5084 39.7064C34.1093 39.9021 33.6387 40 33.0966 40H29.6067ZM31.3912 38.4753H33.074C33.4053 38.4753 33.6312 38.3962 33.7516 38.2381C33.8796 38.0725 33.9436 37.8541 33.9436 37.5831C33.9436 37.3195 33.8796 37.1087 33.7516 36.9506C33.6312 36.7849 33.3978 36.7021 33.0514 36.7021H31.3912V38.4753ZM31.3912 35.1548H32.6222C32.9761 35.1548 33.2208 35.0984 33.3564 34.9854C33.4919 34.8649 33.5596 34.6616 33.5596 34.3755C33.5596 34.1195 33.4956 33.9313 33.3676 33.8108C33.2396 33.6828 32.9874 33.6188 32.6109 33.6188H31.3912V35.1548Z" fill="white"/>
</svg>
