<svg width="24" height="24" viewBox="0 0 24 24" fill="none" xmlns="http://www.w3.org/2000/svg">
<path d="M21.25 12C21.25 11.9839 21.2517 11.9697 21.2207 11.9102C21.1976 11.8657 21.1666 11.8156 21.1211 11.748L20.9336 11.4805C20.2734 10.5547 19.1076 9.10633 17.5566 7.89551C16.0041 6.68348 14.1186 5.75 12 5.75C9.88134 5.75 7.99587 6.68348 6.44336 7.89551C5.08631 8.95496 4.02445 10.1964 3.33789 11.1104L3.06641 11.4805C2.90324 11.7093 2.82563 11.8212 2.7793 11.9102C2.74829 11.9697 2.75 11.984 2.75 12C2.75 12.016 2.74829 12.0303 2.7793 12.0898C2.82563 12.1788 2.90324 12.2907 3.06641 12.5195L3.33789 12.8896C4.02445 13.8036 5.08631 15.045 6.44336 16.1045C7.99587 17.3165 9.88134 18.25 12 18.25C14.1187 18.25 16.0041 17.3165 17.5566 16.1045C19.1076 14.8937 20.2734 13.4453 20.9336 12.5195C21.0968 12.2907 21.1744 12.1788 21.2207 12.0898C21.2517 12.0303 21.25 12.0161 21.25 12ZM22.75 12C22.75 12.602 22.4182 13.0205 22.1543 13.3906C21.4484 14.3804 20.1865 15.9545 18.4795 17.2871C16.7739 18.6186 14.5705 19.75 12 19.75C9.42952 19.75 7.22613 18.6186 5.52051 17.2871C3.81347 15.9545 2.5516 14.3805 1.8457 13.3906C1.58176 13.0205 1.25 12.6021 1.25 12C1.25 11.3979 1.58176 10.9795 1.8457 10.6094C2.55159 9.61957 3.81347 8.04555 5.52051 6.71289C7.22613 5.38137 9.42953 4.25 12 4.25C14.5705 4.25 16.7739 5.38137 18.4795 6.71289C20.1865 8.04555 21.4484 9.61958 22.1543 10.6094C22.4182 10.9795 22.75 11.398 22.75 12Z" fill="#777777"/>
<path d="M14.25 12C14.25 10.7573 13.2427 9.75 12 9.75C10.7573 9.75 9.75 10.7573 9.75 12C9.75 13.2427 10.7573 14.25 12 14.25C13.2427 14.25 14.25 13.2427 14.25 12ZM15.75 12C15.75 14.0711 14.0711 15.75 12 15.75C9.92889 15.75 8.25 14.0711 8.25 12C8.25 9.92889 9.92889 8.25 12 8.25C14.0711 8.25 15.75 9.92889 15.75 12Z" fill="#777777"/>
</svg>
