<?xml version="1.0" encoding="UTF-8" standalone="no"?>
<!DOCTYPE svg PUBLIC "-//W3C//DTD SVG 1.1//EN" "http://www.w3.org/Graphics/SVG/1.1/DTD/svg11.dtd">
<svg width="100%" height="100%" viewBox="0 0 1080 1080" version="1.1" xmlns="http://www.w3.org/2000/svg" xmlns:xlink="http://www.w3.org/1999/xlink" xml:space="preserve" xmlns:serif="http://www.serif.com/" style="fill-rule:evenodd;clip-rule:evenodd;stroke-linejoin:round;stroke-miterlimit:2;">
    <g transform="matrix(5.03809,0,0,6.26395,-1334.64,-1730.34)">
        <rect x="264.91" y="276.238" width="214.367" height="172.415" style="fill:rgb(215,1,39);"/>
        <path d="M479.277,276.238L479.277,448.654L264.91,448.654L264.91,276.238L479.277,276.238ZM475.307,279.431L268.88,279.431L268.88,445.461L475.307,445.461L475.307,279.431Z" style="fill:white;"/>
    </g>
    <g transform="matrix(8.52214,0,0,8.52214,-2364.91,-2454.52)">
        <path d="M312.889,309.828C312.889,312.943 311.969,315.69 310.13,318.069L312.448,320.571L307.849,324.655L305.31,321.932C303.47,322.815 301.496,323.257 299.386,323.257C295.609,323.257 292.414,321.963 289.802,319.375C287.19,316.787 285.884,313.605 285.884,309.828C285.884,306.05 287.19,302.868 289.802,300.28C292.414,297.692 295.609,296.398 299.386,296.398C303.164,296.398 306.359,297.692 308.971,300.28C311.583,302.868 312.889,306.05 312.889,309.828ZM299.386,316.818C299.656,316.818 300.012,316.793 300.453,316.744L296.995,313.028L301.631,308.981L305.568,313.176C306.083,312.145 306.34,311.029 306.34,309.828C306.34,307.792 305.678,306.118 304.353,304.805C303.029,303.493 301.373,302.837 299.386,302.837C297.4,302.837 295.744,303.493 294.419,304.805C293.095,306.118 292.433,307.792 292.433,309.828C292.433,311.863 293.095,313.537 294.419,314.85C295.744,316.162 297.4,316.818 299.386,316.818Z" style="fill:white;fill-rule:nonzero;"/>
        <path d="M322.713,316.34L331.58,316.34L331.58,322.705L316.127,322.705L316.127,296.95L322.713,296.95L322.713,316.34Z" style="fill:white;fill-rule:nonzero;"/>
        <rect x="333.971" y="296.95" width="6.586" height="25.755" style="fill:white;fill-rule:nonzero;"/>
        <path d="M358.806,296.95L365.355,296.95L365.355,322.705L360.278,322.705L351.19,309.754L351.19,322.705L344.604,322.705L344.604,296.95L349.718,296.95L358.806,309.901L358.806,296.95Z" style="fill:white;fill-rule:nonzero;"/>
        <path d="M390.778,322.705L383.42,322.705L376.025,311.189L376.025,322.705L369.439,322.705L369.439,296.95L376.025,296.95L376.025,307.767L383.052,296.95L390.41,296.95L382.243,309.46L390.778,322.705Z" style="fill:white;fill-rule:nonzero;"/>
    </g>
    <g transform="matrix(8.70968,0,0,8.70968,-2417.39,-2205.97)">
        <path d="M299.974,322.705L295.582,314.569L293.278,314.569L293.278,322.705L286.834,322.705L286.834,297.505L296.914,297.505C299.482,297.505 301.636,298.327 303.376,299.971C305.116,301.615 305.986,303.697 305.986,306.217C305.986,307.729 305.602,309.115 304.834,310.375C304.066,311.635 303.022,312.637 301.702,313.381L306.886,322.705L299.974,322.705ZM293.278,303.445L293.278,309.097L296.842,309.097C297.634,309.121 298.282,308.869 298.786,308.341C299.29,307.813 299.542,307.129 299.542,306.289C299.542,305.449 299.29,304.765 298.786,304.237C298.282,303.709 297.634,303.445 296.842,303.445L293.278,303.445Z" style="fill:white;fill-rule:nonzero;"/>
        <rect x="310.162" y="297.505" width="6.444" height="25.2" style="fill:white;fill-rule:nonzero;"/>
        <path d="M331.834,297.505C335.314,297.505 338.224,298.711 340.564,301.123C342.904,303.535 344.074,306.529 344.074,310.105C344.074,313.681 342.904,316.675 340.564,319.087C338.224,321.499 335.314,322.705 331.834,322.705L321.574,322.705L321.574,297.505L331.834,297.505ZM331.834,316.477C333.586,316.477 335.014,315.895 336.118,314.731C337.222,313.567 337.774,312.025 337.774,310.105C337.774,308.185 337.222,306.643 336.118,305.479C335.014,304.315 333.586,303.733 331.834,303.733L328.198,303.733L328.198,316.477L331.834,316.477Z" style="fill:white;fill-rule:nonzero;"/>
        <path d="M354.514,316.657L364.27,316.657L364.27,322.705L348.07,322.705L348.07,297.505L364.09,297.505L364.09,303.517L354.514,303.517L354.514,307.009L363.19,307.009L363.19,312.949L354.514,312.949L354.514,316.657Z" style="fill:white;fill-rule:nonzero;"/>
        <path d="M381.478,322.705L377.086,314.569L374.782,314.569L374.782,322.705L368.338,322.705L368.338,297.505L378.418,297.505C380.986,297.505 383.14,298.327 384.88,299.971C386.62,301.615 387.49,303.697 387.49,306.217C387.49,307.729 387.106,309.115 386.338,310.375C385.57,311.635 384.526,312.637 383.206,313.381L388.39,322.705L381.478,322.705ZM374.782,303.445L374.782,309.097L378.346,309.097C379.138,309.121 379.786,308.869 380.29,308.341C380.794,307.813 381.046,307.129 381.046,306.289C381.046,305.449 380.794,304.765 380.29,304.237C379.786,303.709 379.138,303.445 378.346,303.445L374.782,303.445Z" style="fill:white;fill-rule:nonzero;"/>
    </g>
    <g transform="matrix(8.70968,0,0,8.70968,-2417.7,-1908.82)">
        <path d="M299.002,323.245C295.21,323.245 292.072,321.991 289.588,319.483C287.104,316.975 285.862,313.849 285.862,310.105C285.862,306.361 287.104,303.235 289.588,300.727C292.072,298.219 295.21,296.965 299.002,296.965C301.282,296.965 303.394,297.505 305.338,298.585C307.282,299.665 308.806,301.117 309.91,302.941L304.33,306.145C303.85,305.257 303.136,304.555 302.188,304.039C301.24,303.523 300.178,303.265 299.002,303.265C296.986,303.265 295.36,303.895 294.124,305.155C292.888,306.415 292.27,308.065 292.27,310.105C292.27,312.145 292.888,313.795 294.124,315.055C295.36,316.315 296.986,316.945 299.002,316.945C300.178,316.945 301.24,316.687 302.188,316.171C303.136,315.655 303.85,314.941 304.33,314.029L309.91,317.269C308.806,319.117 307.288,320.575 305.356,321.643C303.424,322.711 301.306,323.245 299.002,323.245Z" style="fill:white;fill-rule:nonzero;"/>
        <path d="M324.166,316.477L332.842,316.477L332.842,322.705L317.722,322.705L317.722,297.505L324.166,297.505L324.166,316.477Z" style="fill:white;fill-rule:nonzero;"/>
        <path d="M357.322,320.833C355.474,322.441 353.086,323.245 350.158,323.245C347.23,323.245 344.836,322.441 342.976,320.833C341.116,319.225 340.186,317.089 340.186,314.425L340.186,297.505L346.63,297.505L346.63,313.813C346.63,315.925 347.806,316.981 350.158,316.981C352.51,316.981 353.686,315.925 353.686,313.813L353.686,297.505L360.13,297.505L360.13,314.425C360.13,317.089 359.194,319.225 357.322,320.833Z" style="fill:white;fill-rule:nonzero;"/>
        <path d="M385.258,309.673C387.37,310.921 388.426,312.805 388.426,315.325C388.426,317.557 387.658,319.345 386.122,320.689C384.586,322.033 382.534,322.705 379.966,322.705L369.346,322.705L369.346,297.505L379.282,297.505C381.802,297.505 383.818,298.147 385.33,299.431C386.842,300.715 387.598,302.461 387.598,304.669C387.598,306.781 386.818,308.449 385.258,309.673ZM379.102,303.265L375.79,303.265L375.79,307.225L379.102,307.225C379.678,307.225 380.164,307.051 380.56,306.703C380.956,306.355 381.154,305.869 381.154,305.245C381.154,304.645 380.962,304.165 380.578,303.805C380.194,303.445 379.702,303.265 379.102,303.265ZM379.786,316.945C380.434,316.945 380.962,316.747 381.37,316.351C381.778,315.955 381.982,315.445 381.982,314.821C381.982,314.173 381.778,313.657 381.37,313.273C380.962,312.889 380.434,312.697 379.786,312.697L375.79,312.697L375.79,316.945L379.786,316.945Z" style="fill:white;fill-rule:nonzero;"/>
    </g>
</svg>
