<svg width="112" height="112" viewBox="0 0 112 112" fill="none" xmlns="http://www.w3.org/2000/svg">
<g filter="url(#filter0_i_421_17937)">
<rect x="16" y="16" width="80" height="80" rx="40" fill="#D70127"/>
<rect x="8" y="8" width="96" height="96" rx="48" stroke="white" stroke-width="16"/>
<path d="M68.917 54.3334V52.6667C68.917 46.3813 68.917 43.2386 66.9643 41.286C65.0117 39.3334 61.869 39.3334 55.5837 39.3334H53.9172C47.6318 39.3334 44.4891 39.3334 42.5365 41.286C40.5839 43.2386 40.5838 46.3812 40.5838 52.6666L40.5837 59.3334C40.5837 65.6187 40.5837 68.7614 42.5362 70.714C44.4888 72.6665 47.6316 72.6667 53.917 72.6667" stroke="white" stroke-width="1.5" stroke-linecap="round" stroke-linejoin="round"/>
<path d="M48.0837 47.6667H61.417M48.0837 56.0001H61.417" stroke="white" stroke-width="1.5" stroke-linecap="round"/>
<path d="M58.0837 70.7113V72.6666H60.0393C60.7217 72.6666 61.0628 72.6666 61.3695 72.5396C61.6763 72.4124 61.9175 72.1713 62.4 71.6889L70.4393 63.6489C70.8943 63.1939 71.1218 62.9664 71.2435 62.7211C71.475 62.2541 71.475 61.7059 71.2435 61.2389C71.1218 60.9934 70.8943 60.7659 70.4393 60.3109C69.9842 59.8559 69.7567 59.6284 69.5112 59.5068C69.0442 59.2754 68.4958 59.2754 68.0288 59.5068C67.7835 59.6284 67.5558 59.8559 67.1008 60.3109L59.0615 68.3509C58.579 68.8333 58.3378 69.0744 58.2108 69.3811C58.0837 69.6879 58.0837 70.0289 58.0837 70.7113Z" stroke="white" stroke-width="1.5" stroke-linejoin="round"/>
</g>
<defs>
<filter id="filter0_i_421_17937" x="-2" y="-4" width="114" height="116" filterUnits="userSpaceOnUse" color-interpolation-filters="sRGB">
<feFlood flood-opacity="0" result="BackgroundImageFix"/>
<feBlend mode="normal" in="SourceGraphic" in2="BackgroundImageFix" result="shape"/>
<feColorMatrix in="SourceAlpha" type="matrix" values="0 0 0 0 0 0 0 0 0 0 0 0 0 0 0 0 0 0 127 0" result="hardAlpha"/>
<feOffset dx="-2" dy="-4"/>
<feGaussianBlur stdDeviation="2"/>
<feComposite in2="hardAlpha" operator="arithmetic" k2="-1" k3="1"/>
<feColorMatrix type="matrix" values="0 0 0 0 0 0 0 0 0 0 0 0 0 0 0 0 0 0 0.25 0"/>
<feBlend mode="normal" in2="shape" result="effect1_innerShadow_421_17937"/>
</filter>
</defs>
</svg>
